<svg width="123" height="40" viewBox="0 0 123 40" fill="none" xmlns="http://www.w3.org/2000/svg">
<g clip-path="url(#clip0_4354_14414)">
<rect width="40" height="40" fill="#E30513"/>
<path d="M29.2373 14.5625C29.0024 14.3058 28.7166 14.1009 28.398 13.961C28.0795 13.8211 27.7352 13.7492 27.3873 13.75H24.9998V12.5C24.9998 11.1739 24.473 9.90215 23.5353 8.96447C22.5977 8.02679 21.3259 7.5 19.9998 7.5C18.6737 7.5 17.4019 8.02679 16.4643 8.96447C15.5266 9.90215 14.9998 11.1739 14.9998 12.5V13.75H12.6123C12.2644 13.7492 11.9201 13.8211 11.6015 13.961C11.283 14.1009 10.9971 14.3058 10.7623 14.5625C10.5316 14.8191 10.3551 15.1197 10.2434 15.4462C10.1317 15.7727 10.0871 16.1183 10.1123 16.4625L11.0623 27.8125C11.1409 28.7519 11.5704 29.6273 12.2653 30.2643C12.9602 30.9014 13.8696 31.2533 14.8123 31.25H25.2123C26.155 31.2533 27.0644 30.9014 27.7593 30.2643C28.4542 29.6273 28.8837 28.7519 28.9623 27.8125L29.9123 16.4625C29.9341 16.1166 29.8855 15.7699 29.7695 15.4433C29.6535 15.1167 29.4724 14.8171 29.2373 14.5625V14.5625ZM17.4998 12.5C17.4998 11.837 17.7632 11.2011 18.232 10.7322C18.7009 10.2634 19.3368 10 19.9998 10C20.6628 10 21.2987 10.2634 21.7676 10.7322C22.2364 11.2011 22.4998 11.837 22.4998 12.5V13.75H17.4998V12.5Z" fill="white"/>
</g>
<g clip-path="url(#clip1_4354_14414)">
<path d="M71.9775 15.8902C71.0625 15.3652 69.99 15.1027 68.76 15.1027C67.53 15.1027 66.48 15.3577 65.565 15.8677C64.65 16.3777 63.9525 17.1015 63.4725 18.039C62.9925 18.9765 62.7525 20.0527 62.7525 21.2677C62.7525 22.4827 62.9925 23.5777 63.4725 24.5077C63.9525 25.4377 64.65 26.1615 65.565 26.679C66.48 27.1965 67.5525 27.4552 68.7825 27.4552C70.0125 27.4552 71.0775 27.1965 71.9775 26.679C72.8775 26.1615 73.5712 25.4415 74.0587 24.519C74.5462 23.5965 74.79 22.5127 74.79 21.2677C74.79 20.0227 74.55 18.984 74.07 18.0615C73.59 17.139 72.8925 16.4152 71.9775 15.8902ZM70.9762 23.1915C70.7887 23.709 70.5075 24.1102 70.1325 24.3952C69.7575 24.6802 69.3075 24.8227 68.7825 24.8227C68.2575 24.8227 67.8075 24.6802 67.4325 24.3952C67.0575 24.1102 66.7725 23.7052 66.5775 23.1802C66.3825 22.6552 66.285 22.0252 66.285 21.2902C66.285 20.5552 66.3825 19.8765 66.5775 19.344C66.7725 18.8115 67.0575 18.4065 67.4325 18.129C67.8075 17.8515 68.25 17.7127 68.76 17.7127C69.33 17.7127 69.7987 17.8627 70.1662 18.1627C70.5337 18.4627 70.8075 18.879 70.9875 19.4115C71.1675 19.944 71.2575 20.5702 71.2575 21.2902C71.2575 22.0102 71.1637 22.674 70.9762 23.1915V23.1915ZM57.7575 27.1402H61.2675V15.3952H57.7575V27.1402V27.1402ZM60.5812 10.4677C60.2737 10.3027 59.925 10.2202 59.535 10.2202C59.115 10.2202 58.7512 10.3027 58.4437 10.4677C58.1362 10.6327 57.8962 10.8502 57.7237 11.1202C57.5512 11.3902 57.465 11.7127 57.465 12.0877C57.465 12.4627 57.5512 12.789 57.7237 13.0665C57.8962 13.344 58.1325 13.569 58.4325 13.7415C58.7325 13.914 59.0925 14.0002 59.5125 14.0002C59.9325 14.0002 60.2775 13.9177 60.5925 13.7527C60.9075 13.5877 61.1437 13.3627 61.3012 13.0777C61.4587 12.7927 61.5375 12.4702 61.5375 12.1102C61.5375 11.7502 61.455 11.409 61.29 11.1315C61.125 10.854 60.8887 10.6327 60.5812 10.4677V10.4677ZM51.9075 22.0102C51.9075 22.5652 51.8587 23.0152 51.7612 23.3602C51.6637 23.7052 51.495 23.9677 51.255 24.1477C51.015 24.3277 50.6775 24.4177 50.2425 24.4177C49.6275 24.4177 49.1812 24.2377 48.9037 23.8777C48.6262 23.5177 48.4875 22.9402 48.4875 22.1452H45V22.4827C45 23.5327 45.1987 24.4327 45.5962 25.1827C45.9937 25.9327 46.5862 26.5065 47.3737 26.904C48.1612 27.3015 49.1325 27.5002 50.2875 27.5002C51.5475 27.5002 52.5825 27.294 53.3925 26.8815C54.2025 26.469 54.8025 25.854 55.1925 25.0365C55.5825 24.219 55.7775 23.2102 55.7775 22.0102V11.5927H51.9075V22.0102ZM121.699 24.5302C121.309 24.5302 120.997 24.4665 120.765 24.339C120.532 24.2115 120.367 24.009 120.27 23.7315C120.172 23.454 120.124 23.0827 120.124 22.6177V17.9377H122.936V15.4627H120.124V11.9302H116.591V23.0902C116.591 24.1102 116.76 24.9315 117.097 25.554C117.435 26.1765 117.904 26.6265 118.504 26.904C119.104 27.1815 119.861 27.3202 120.776 27.3202C121.691 27.3202 122.381 27.2452 122.981 27.0952V24.4177C122.591 24.4927 122.164 24.5302 121.699 24.5302V24.5302ZM112.687 15.699C112.125 16.0965 111.716 16.6627 111.461 17.3977H111.349L111.281 15.3952H107.996V27.1402H111.484V21.8527C111.484 21.1027 111.596 20.4577 111.821 19.9177C112.046 19.3777 112.387 18.9577 112.845 18.6577C113.302 18.3577 113.891 18.2077 114.611 18.2077C114.836 18.2077 115.035 18.219 115.207 18.2415C115.38 18.264 115.526 18.2977 115.646 18.3427V15.2152C115.376 15.1402 115.046 15.1027 114.656 15.1027C113.906 15.1027 113.25 15.3015 112.687 15.699V15.699ZM85.0112 21.8977H84.9662L81.6587 11.5927H76.2812V27.1402H79.8812V16.1602H79.9712L83.4812 27.1402H86.4512L89.9387 16.1377H90.0512V27.1402H93.6287V11.5927H88.2512L85.0112 21.8977V21.8977ZM103.981 15.5865C103.209 15.249 102.222 15.0802 101.022 15.0802C99.8225 15.0802 98.9112 15.2115 98.1537 15.474C97.3962 15.7365 96.8112 16.1265 96.3987 16.644C95.9862 17.1615 95.72 17.7877 95.6 18.5227H98.9525C99.0425 18.1327 99.2412 17.8327 99.5487 17.6227C99.8562 17.4127 100.302 17.3077 100.887 17.3077C101.367 17.3077 101.75 17.3865 102.035 17.544C102.32 17.7015 102.522 17.9377 102.642 18.2527C102.762 18.5677 102.822 18.9652 102.822 19.4452V19.9852H100.932C99.6875 19.9852 98.6337 20.124 97.7712 20.4015C96.9087 20.679 96.2525 21.0915 95.8025 21.639C95.3525 22.1865 95.1275 22.8952 95.1275 23.7652C95.1275 24.5302 95.2925 25.1902 95.6225 25.7452C95.9525 26.3002 96.4212 26.724 97.0287 27.0165C97.6362 27.309 98.3525 27.4552 99.1775 27.4552C99.7925 27.4552 100.344 27.3765 100.831 27.219C101.319 27.0615 101.716 26.8552 102.024 26.6002C102.331 26.3452 102.597 26.0452 102.822 25.7002H102.935L103.092 27.1402H106.22V19.7377C106.22 18.6877 106.04 17.8177 105.68 17.1277C105.32 16.4377 104.754 15.924 103.981 15.5865V15.5865ZM102.822 22.6627C102.822 23.1727 102.717 23.6152 102.507 23.9902C102.297 24.3652 102.024 24.6465 101.686 24.834C101.349 25.0215 100.947 25.1152 100.482 25.1152C100.122 25.1152 99.815 25.0552 99.56 24.9352C99.305 24.8152 99.0987 24.639 98.9412 24.4065C98.7837 24.174 98.705 23.8777 98.705 23.5177C98.705 23.0977 98.8175 22.764 99.0425 22.5165C99.2675 22.269 99.59 22.089 100.01 21.9765C100.43 21.864 100.932 21.8077 101.517 21.8077H102.822V22.6627V22.6627Z" fill="#141414"/>
</g>
<defs>
<clipPath id="clip0_4354_14414">
<rect width="40" height="40" rx="20" fill="white"/>
</clipPath>
<clipPath id="clip1_4354_14414">
<rect width="77.975" height="30" fill="white" transform="translate(45 5)"/>
</clipPath>
</defs>
</svg>
