<svg width="138" height="40" viewBox="0 0 138 40" fill="none" xmlns="http://www.w3.org/2000/svg">
<g clip-path="url(#clip0_4354_14413)">
<path d="M0 20C0 31.0457 8.95431 40 20 40C31.0457 40 40 31.0457 40 20C40 8.95431 31.0457 0 20 0C8.95431 0 0 8.95431 0 20Z" fill="#1ECCB0"/>
<path d="M17.2996 31.3378C16.534 30.0886 15.5217 29.0087 14.3246 28.164C13.1275 27.3194 11.7707 26.7278 10.3371 26.4253H10.2246C10.092 26.4253 9.96482 26.478 9.87106 26.5717C9.77729 26.6655 9.72461 26.7927 9.72461 26.9253C9.72549 27.0333 9.76049 27.1383 9.82461 27.2253C11.5006 29.6013 13.9475 31.3239 16.7496 32.1003H16.8746C16.9403 32.1003 17.0053 32.0874 17.066 32.0622C17.1266 32.0371 17.1817 32.0003 17.2282 31.9538C17.2746 31.9074 17.3114 31.8523 17.3365 31.7916C17.3617 31.731 17.3746 31.666 17.3746 31.6003C17.3613 31.5099 17.3361 31.4216 17.2996 31.3378V31.3378Z" fill="white"/>
<path d="M32.0625 16.6627C32.0685 16.6129 32.0685 16.5625 32.0625 16.5127C31.4137 14.3081 30.1698 12.325 28.4674 10.7813C26.7649 9.23766 24.6699 8.19319 22.4125 7.7627H22.325C22.1924 7.7627 22.0652 7.81537 21.9714 7.90914C21.8777 8.00291 21.825 8.13009 21.825 8.2627V8.3502C22.961 15.2217 22.2092 22.2727 19.65 28.7502C19.6127 28.8424 19.5488 28.9213 19.4664 28.977C19.384 29.0327 19.2869 29.0625 19.1875 29.0627C19.1224 29.0644 19.0577 29.053 18.9971 29.0292C18.9365 29.0055 18.8813 28.9698 18.8347 28.9244C18.7881 28.879 18.751 28.8247 18.7258 28.7647C18.7005 28.7047 18.6875 28.6403 18.6875 28.5752C18.6875 28.5752 18.6125 27.7502 18.5625 27.3252C17.8729 21.3485 16.0621 15.5556 13.225 10.2502C13.1972 10.1833 13.1555 10.123 13.1027 10.0733C13.05 10.0237 12.9872 9.98578 12.9187 9.96215C12.8502 9.93853 12.7774 9.9297 12.7053 9.93626C12.6331 9.94282 12.5631 9.96461 12.5 10.0002V10.0002C10.7346 11.3507 9.35874 13.1449 8.51249 15.2002C8.47213 15.3118 8.46986 15.4337 8.50604 15.5468C8.54222 15.6598 8.61481 15.7577 8.71249 15.8252C11.4619 17.513 13.7466 19.8602 15.3596 22.6541C16.9727 25.448 17.863 28.6003 17.95 31.8252C17.9545 31.9447 18.0008 32.0589 18.0807 32.148C18.1606 32.237 18.2691 32.2953 18.3875 32.3127C18.6875 32.3127 18.975 32.3877 19.275 32.4002C19.3916 32.3991 19.5041 32.3572 19.5932 32.2819C19.6822 32.2066 19.7421 32.1025 19.7625 31.9877C20.3644 28.6912 21.7746 25.5954 23.8666 22.9776C25.9587 20.3598 28.6673 18.3017 31.75 16.9877C31.8261 16.9658 31.895 16.9242 31.9499 16.8672C32.0047 16.8101 32.0436 16.7396 32.0625 16.6627Z" fill="white"/>
<path d="M30.8623 26.1504C30.8623 26.0178 30.8096 25.8906 30.7158 25.7968C30.6221 25.7031 30.4949 25.6504 30.3623 25.6504H30.2498C26.3812 26.4912 22.9102 28.6143 20.3998 31.6754C20.3241 31.7665 20.2841 31.882 20.2873 32.0004C20.2873 32.133 20.34 32.2602 20.4337 32.3539C20.5275 32.4477 20.6547 32.5004 20.7873 32.5004V32.5004C22.8256 32.3778 24.8028 31.7576 26.546 30.6943C28.2893 29.6309 29.7455 28.1566 30.7873 26.4004C30.8329 26.3247 30.8587 26.2387 30.8623 26.1504V26.1504Z" fill="white"/>
</g>
<g clip-path="url(#clip1_4354_14413)">
<path d="M71.9775 15.8902C71.0625 15.3652 69.99 15.1027 68.76 15.1027C67.53 15.1027 66.48 15.3577 65.565 15.8677C64.65 16.3777 63.9525 17.1015 63.4725 18.039C62.9925 18.9765 62.7525 20.0527 62.7525 21.2677C62.7525 22.4827 62.9925 23.5777 63.4725 24.5077C63.9525 25.4377 64.65 26.1615 65.565 26.679C66.48 27.1965 67.5525 27.4552 68.7825 27.4552C70.0125 27.4552 71.0775 27.1965 71.9775 26.679C72.8775 26.1615 73.5712 25.4415 74.0587 24.519C74.5462 23.5965 74.79 22.5127 74.79 21.2677C74.79 20.0227 74.55 18.984 74.07 18.0615C73.59 17.139 72.8925 16.4152 71.9775 15.8902ZM70.9762 23.1915C70.7887 23.709 70.5075 24.1102 70.1325 24.3952C69.7575 24.6802 69.3075 24.8227 68.7825 24.8227C68.2575 24.8227 67.8075 24.6802 67.4325 24.3952C67.0575 24.1102 66.7725 23.7052 66.5775 23.1802C66.3825 22.6552 66.285 22.0252 66.285 21.2902C66.285 20.5552 66.3825 19.8765 66.5775 19.344C66.7725 18.8115 67.0575 18.4065 67.4325 18.129C67.8075 17.8515 68.25 17.7127 68.76 17.7127C69.33 17.7127 69.7987 17.8627 70.1662 18.1627C70.5337 18.4627 70.8075 18.879 70.9875 19.4115C71.1675 19.944 71.2575 20.5702 71.2575 21.2902C71.2575 22.0102 71.1637 22.674 70.9762 23.1915V23.1915ZM60.5812 10.4677C60.2737 10.3027 59.925 10.2202 59.535 10.2202C59.115 10.2202 58.7512 10.3027 58.4437 10.4677C58.1362 10.6327 57.8962 10.8502 57.7237 11.1202C57.5512 11.3902 57.465 11.7127 57.465 12.0877C57.465 12.4627 57.5512 12.789 57.7237 13.0665C57.8962 13.344 58.1325 13.569 58.4325 13.7415C58.7325 13.914 59.0925 14.0002 59.5125 14.0002C59.9325 14.0002 60.2775 13.9177 60.5925 13.7527C60.9075 13.5877 61.1437 13.3627 61.3012 13.0777C61.4587 12.7927 61.5375 12.4702 61.5375 12.1102C61.5375 11.7502 61.455 11.409 61.29 11.1315C61.125 10.854 60.8887 10.6327 60.5812 10.4677V10.4677ZM57.7575 27.1402H61.2675V15.3952H57.7575V27.1402V27.1402ZM51.9075 22.0102C51.9075 22.5652 51.8587 23.0152 51.7612 23.3602C51.6637 23.7052 51.495 23.9677 51.255 24.1477C51.015 24.3277 50.6775 24.4177 50.2425 24.4177C49.6275 24.4177 49.1812 24.2377 48.9037 23.8777C48.6262 23.5177 48.4875 22.9402 48.4875 22.1452H45V22.4827C45 23.5327 45.1987 24.4327 45.5962 25.1827C45.9937 25.9327 46.5862 26.5065 47.3737 26.904C48.1612 27.3015 49.1325 27.5002 50.2875 27.5002C51.5475 27.5002 52.5825 27.294 53.3925 26.8815C54.2025 26.469 54.8025 25.854 55.1925 25.0365C55.5825 24.219 55.7775 23.2102 55.7775 22.0102V11.5927H51.9075V22.0102V22.0102ZM137.52 17.094C137.205 16.4415 136.747 15.9465 136.147 15.609C135.547 15.2715 134.812 15.1027 133.942 15.1027C133.132 15.1027 132.424 15.264 131.816 15.5865C131.209 15.909 130.725 16.3777 130.365 16.9927H130.252L130.185 15.3952H126.855V27.1402H130.365V20.4802C130.365 19.5652 130.541 18.894 130.894 18.4665C131.246 18.039 131.775 17.8252 132.48 17.8252C133.185 17.8252 133.657 18.0427 133.987 18.4777C134.317 18.9127 134.482 19.5727 134.482 20.4577V27.1402H137.992V19.5127C137.992 18.5527 137.835 17.7465 137.52 17.094V17.094ZM111.627 15.5865C110.855 15.249 109.869 15.0802 108.669 15.0802C107.469 15.0802 106.557 15.2115 105.8 15.474C105.042 15.7365 104.457 16.1265 104.045 16.644C103.632 17.1615 103.366 17.7877 103.246 18.5227H106.599C106.689 18.1327 106.887 17.8327 107.195 17.6227C107.502 17.4127 107.949 17.3077 108.534 17.3077C109.014 17.3077 109.396 17.3865 109.681 17.544C109.966 17.7015 110.169 17.9377 110.289 18.2527C110.409 18.5677 110.469 18.9652 110.469 19.4452V19.9852H108.579C107.334 19.9852 106.28 20.124 105.417 20.4015C104.555 20.679 103.899 21.0915 103.449 21.639C102.999 22.1865 102.774 22.8952 102.774 23.7652C102.774 24.5302 102.939 25.1902 103.269 25.7452C103.599 26.3002 104.067 26.724 104.675 27.0165C105.282 27.309 105.999 27.4552 106.824 27.4552C107.439 27.4552 107.99 27.3765 108.477 27.219C108.965 27.0615 109.362 26.8552 109.67 26.6002C109.977 26.3452 110.244 26.0452 110.469 25.7002H110.581L110.739 27.1402H113.866V19.7377C113.866 18.6877 113.686 17.8177 113.326 17.1277C112.966 16.4377 112.4 15.924 111.627 15.5865V15.5865ZM110.469 22.6627C110.469 23.1727 110.364 23.6152 110.154 23.9902C109.944 24.3652 109.67 24.6465 109.332 24.834C108.995 25.0215 108.594 25.1152 108.129 25.1152C107.769 25.1152 107.461 25.0552 107.206 24.9352C106.951 24.8152 106.745 24.639 106.587 24.4065C106.43 24.174 106.351 23.8777 106.351 23.5177C106.351 23.0977 106.464 22.764 106.689 22.5165C106.914 22.269 107.236 22.089 107.656 21.9765C108.076 21.864 108.579 21.8077 109.164 21.8077H110.469V22.6627V22.6627ZM120.346 23.5852H120.301L118.029 15.3952H114.316L118.164 27.1402H122.304L126.174 15.3952H122.619L120.346 23.5852ZM99.3475 15.5865C98.575 15.249 97.5887 15.0802 96.3887 15.0802C95.1887 15.0802 94.2775 15.2115 93.52 15.474C92.7625 15.7365 92.1775 16.1265 91.765 16.644C91.3525 17.1615 91.0862 17.7877 90.9662 18.5227H94.3187C94.4087 18.1327 94.6075 17.8327 94.915 17.6227C95.2225 17.4127 95.6687 17.3077 96.2537 17.3077C96.7337 17.3077 97.1162 17.3865 97.4012 17.544C97.6862 17.7015 97.8887 17.9377 98.0087 18.2527C98.1287 18.5677 98.1887 18.9652 98.1887 19.4452V19.9852H96.2987C95.0537 19.9852 94 20.124 93.1375 20.4015C92.275 20.679 91.6187 21.0915 91.1687 21.639C90.7187 22.1865 90.4937 22.8952 90.4937 23.7652C90.4937 24.5302 90.6587 25.1902 90.9887 25.7452C91.3187 26.3002 91.7875 26.724 92.395 27.0165C93.0025 27.309 93.7187 27.4552 94.5437 27.4552C95.1587 27.4552 95.71 27.3765 96.1975 27.219C96.685 27.0615 97.0825 26.8552 97.39 26.6002C97.6975 26.3452 97.9637 26.0452 98.1887 25.7002H98.3012L98.4587 27.1402H101.586V19.7377C101.586 18.6877 101.406 17.8177 101.046 17.1277C100.686 16.4377 100.12 15.924 99.3475 15.5865V15.5865ZM98.1887 22.6627C98.1887 23.1727 98.0837 23.6152 97.8737 23.9902C97.6637 24.3652 97.39 24.6465 97.0525 24.834C96.715 25.0215 96.3137 25.1152 95.8487 25.1152C95.4887 25.1152 95.1812 25.0552 94.9262 24.9352C94.6712 24.8152 94.465 24.639 94.3075 24.4065C94.15 24.174 94.0712 23.8777 94.0712 23.5177C94.0712 23.0977 94.1837 22.764 94.4087 22.5165C94.6337 22.269 94.9562 22.089 95.3762 21.9765C95.7962 21.864 96.2987 21.8077 96.8837 21.8077H98.1887V22.6627V22.6627ZM87.2087 18.849C86.4737 18.4665 85.5062 18.1177 84.3062 17.8027L82.4162 17.3302C81.8462 17.1952 81.4037 17.0527 81.0887 16.9027C80.7737 16.7527 80.5525 16.5765 80.425 16.374C80.2975 16.1715 80.2337 15.9202 80.2337 15.6202C80.2337 15.2602 80.335 14.9602 80.5375 14.7202C80.74 14.4802 81.0175 14.304 81.37 14.1915C81.7225 14.079 82.1312 14.0227 82.5962 14.0227C83.1212 14.0227 83.5675 14.0827 83.935 14.2027C84.3025 14.3227 84.5912 14.5102 84.8012 14.7652C85.0112 15.0202 85.1312 15.3352 85.1612 15.7102H88.8287C88.7987 14.7502 88.5287 13.9327 88.0187 13.2577C87.5087 12.5827 86.7962 12.0765 85.8812 11.739C84.9662 11.4015 83.9012 11.2327 82.6862 11.2327C81.4712 11.2327 80.38 11.424 79.4575 11.8065C78.535 12.189 77.815 12.7402 77.2975 13.4602C76.78 14.1802 76.5212 15.0277 76.5212 16.0027C76.5212 16.7227 76.66 17.349 76.9375 17.8815C77.215 18.414 77.6425 18.8752 78.22 19.2652C78.7975 19.6552 79.5287 19.9777 80.4137 20.2327L83.0237 20.9302C83.6387 21.1102 84.13 21.2902 84.4975 21.4702C84.865 21.6502 85.1387 21.8527 85.3187 22.0777C85.4987 22.3027 85.5887 22.5802 85.5887 22.9102C85.5887 23.3002 85.4725 23.6302 85.24 23.9002C85.0075 24.1702 84.685 24.369 84.2725 24.4965C83.86 24.624 83.3912 24.6877 82.8662 24.6877C81.9062 24.6877 81.1637 24.5152 80.6387 24.1702C80.1137 23.8252 79.8437 23.3002 79.8287 22.5952H76.0037C76.0037 23.6152 76.2775 24.4927 76.825 25.2277C77.3725 25.9627 78.1487 26.5252 79.1537 26.9152C80.1587 27.3052 81.3437 27.5002 82.7087 27.5002C84.1487 27.5002 85.375 27.2902 86.3875 26.8702C87.4 26.4502 88.1612 25.8615 88.6712 25.104C89.1812 24.3465 89.4362 23.4727 89.4362 22.4827C89.4362 21.6127 89.2487 20.8852 88.8737 20.3002C88.4987 19.7152 87.9437 19.2315 87.2087 18.849V18.849Z" fill="#141414"/>
</g>
<defs>
<clipPath id="clip0_4354_14413">
<rect width="40" height="40" rx="20" fill="white"/>
</clipPath>
<clipPath id="clip1_4354_14413">
<rect width="92.9875" height="30" fill="white" transform="translate(45 5)"/>
</clipPath>
</defs>
</svg>
